<svg id="Layer_1" data-name="Layer 1" xmlns="http://www.w3.org/2000/svg" viewBox="0 0 512 512"><defs><style>.cls-1{fill:#141f38;}</style></defs><title>beer-1-outline</title><path class="cls-1" d="M406.33,89.6h0a639.63,639.63,0,0,0-10.18-64.29A32,32,0,0,0,364.82,0H147.17a32,32,0,0,0-31.3,25.31A639.63,639.63,0,0,0,105.69,89.6h0c-6.11,57.1-5.66,129.14,19.71,192,30.44,75.4,25,146.33,15.43,191.89A32,32,0,0,0,172.11,512H339.87a32,32,0,0,0,31.32-38.51c-9.59-45.57-15-116.49,15.43-191.89C412,218.74,412.44,146.7,406.33,89.6Zm-265.42-59a6.32,6.32,0,0,1,6.25-5H364.82a6.32,6.32,0,0,1,6.25,5c3.06,14.47,6.82,35,9.48,59H131.44C134.1,65.63,137.85,45.09,140.92,30.62Zm222,241.4c-32.74,81.1-27.18,157.19-16.74,206.75a6.12,6.12,0,0,1-1.27,5.26,6.24,6.24,0,0,1-5,2.37H172.11a6.24,6.24,0,0,1-5-2.37,6.11,6.11,0,0,1-1.27-5.26c10.43-49.56,16-125.65-16.75-206.75-17.12-42.4-23.93-96.25-20-156.82H382.85C386.82,175.76,380,229.61,362.88,272Z"/></svg>